:SAMPLES-PER-SECOND 30
:FULLY-SPECIFIED
:DEGREES
1888
root  5.77543 40.8944 -5.45807 -116.92 -78.0375 126.782
RightUpLeg  -17.1397 -11.8922 -8.16305
RightLeg  8.43497 -5.74062 4.92187
RightFoot  -5.67148 -0.389683 7.07556
RightToes  -4.65663e-010 0 -3.6325e-017
Spine  8.87182 -0.326568 12.986
Spine1  -1.51177 2.3758 -8.55115
HEad  12.2663 15.6469 -13.1805
LeftShoulder1  7.17096 -10.3051 -45.2458
LeftArm  -11.6862 31.7136 -20.2171
LeftForeArm  24.1978 -29.6778 -5.11365
LeftHand  -0.244104 0.0205437 5.32207
RightShoulder  4.50532 7.93679 33.4356
RightArm  -3.60949 -18.4111 23.3484
RightForeArm  4.539 44.6009 10.7469
RightHand  -1.5279 3.04166 -21.0584
LeftUpLeg  -23.0119 15.0808 4.12699
LeftLeg  102.132 -2.05498 6.96519
LeftFoot  -0.0670467 0.939292 -9.48918
LeftToes  4.18335e-011 1.59304e-011 3.38507e-012
1889
root  5.74339 40.901 -5.336 -116.485 -77.4304 127.929
RightUpLeg  -18.8886 -11.8529 -8.26909
RightLeg  8.25372 -5.42318 4.71819
RightFoot  -5.47563 -0.41325 7.32738
RightToes  -4.65663e-010 0 -3.6325e-017
Spine  6.73657 -0.685079 13.9683
Spine1  -0.840719 2.17975 -8.60833
HEad  12.1196 16.7838 -14.1316
LeftShoulder1  7.15421 -10.2531 -45.3128
LeftArm  -10.8452 31.3055 -19.7509
LeftForeArm  23.5574 -29.2898 -5.05904
LeftHand  -0.244104 0.0205437 5.32207
RightShoulder  4.42099 7.82726 33.074
RightArm  -3.43051 -19.9781 23.2269
RightForeArm  6.25962 47.5686 11.8278
RightHand  -1.46529 2.76291 -20.8862
LeftUpLeg  -18.044 13.6389 5.39691
LeftLeg  110.17 -3.13109 6.91242
LeftFoot  3.12638 1.11751 -8.93943
LeftToes  4.18335e-011 1.59304e-011 3.38507e-012
1890
root  5.66063 40.947 -5.2287 -116.736 -77.016 129.525
RightUpLeg  -19.8266 -11.678 -8.27903
RightLeg  7.21766 -5.16502 4.69556
RightFoot  -5.02167 -0.452876 7.57017
RightToes  -4.65663e-010 0 -3.6325e-017
Spine  4.45491 -1.04857 14.9865
Spine1  0.152634 1.93872 -8.67895
HEad  11.9357 18.016 -15.0369
LeftShoulder1  7.11747 -10.1713 -45.3503
LeftArm  -10.1005 30.8439 -19.4591
LeftForeArm  23.4528 -29.0776 -5.01592
LeftHand  -0.244104 0.0205437 5.32207
RightShoulder  4.35063 7.7677 32.6568
RightArm  -3.29798 -21.1413 22.974
RightForeArm  7.08491 48.7311 12.2862
RightHand  -1.42428 2.66711 -20.5516
LeftUpLeg  -11.8496 11.9941 6.8055
LeftLeg  115.078 -3.86019 6.90743
LeftFoot  7.4593 1.17964 -7.46184
LeftToes  4.18335e-011 1.59304e-011 3.38507e-012
1891
root  5.54785 40.9716 -5.10951 -116.198 -77.1512 130.342
RightUpLeg  -20.4961 -11.5163 -8.14764
RightLeg  5.99064 -5.24319 4.84867
RightFoot  -4.7308 -0.499973 8.08559
RightToes  -4.65663e-010 0 -3.6325e-017
Spine  1.7858 -1.41897 16.4543
Spine1  1.37887 1.63777 -8.71017
HEad  12.1691 19.1256 -15.7803
LeftShoulder1  7.06415 -10.0766 -45.3225
LeftArm  -9.13025 30.2406 -19.284
LeftForeArm  23.5168 -28.6196 -4.90749
LeftHand  -0.244104 0.0205437 5.32207
RightShoulder  4.2478 7.62072 32.2414
RightArm  -3.45572 -22.2823 22.528
RightForeArm  6.8437 48.6139 12.2542
RightHand  -1.38131 2.46793 -20.4358
LeftUpLeg  -5.41897 9.6689 8.16876
LeftLeg  115.9 -3.85328 6.64764
LeftFoot  15.1726 1.24904 -5.70584
LeftToes  4.18335e-011 1.59304e-011 3.38507e-012
1892
root  5.44168 40.9708 -4.97406 -113.454 -77.8295 129.082
RightUpLeg  -21.4103 -11.3278 -7.92865
RightLeg  5.1557 -5.91899 4.92133
RightFoot  -4.55685 -0.526428 8.34324
RightToes  -4.65663e-010 0 -3.6325e-017
Spine  -0.985305 -1.77835 18.1633
Spine1  2.37553 1.21709 -8.42492
HEad  12.7754 19.9453 -16.4384
LeftShoulder1  6.98181 -9.94451 -45.2293
LeftArm  -7.97738 29.6698 -19.2348
LeftForeArm  23.6045 -28.0369 -4.77038
LeftHand  -0.244104 0.0205437 5.32207
RightShoulder  4.05001 7.28192 31.6017
RightArm  -4.01301 -23.8238 22.0887
RightForeArm  6.01802 47.9898 12.0369
RightHand  -1.34098 2.21521 -20.4887
LeftUpLeg  0.309158 6.64008 9.28731
LeftLeg  111.969 -2.86694 5.71429
LeftFoot  26.9691 2.14539 -6.54513
LeftToes  4.18335e-011 1.59304e-011 3.38507e-012
1893
root  5.26333 40.9779 -4.87272 -108.788 -78.6024 125.751
RightUpLeg  -22.2463 -11.1484 -7.8261
RightLeg  4.79616 -6.82383 4.83076
RightFoot  -4.55827 -0.516925 8.18224
RightToes  -4.65663e-010 0 -3.6325e-017
Spine  -3.39665 -1.9879 19.3599
Spine1  2.83646 0.610077 -7.5034
HEad  13.0917 20.4012 -17.1364
LeftShoulder1  6.87934 -9.77693 -45.122
LeftArm  -6.81841 29.1976 -19.2657
LeftForeArm  23.8595 -27.5281 -4.64238
LeftHand  -0.244104 0.0205437 5.32207
RightShoulder  3.77831 6.81817 30.6473
RightArm  -4.92585 -25.6522 21.7662
RightForeArm  4.85852 47.1512 11.7573
RightHand  -1.33591 2.18635 -20.4886
LeftUpLeg  4.99317 3.8144 10.1252
LeftLeg  103.954 -1.51022 4.24161
LeftFoot  38.4484 4.46329 -10.132
LeftToes  4.18335e-011 1.59304e-011 3.38507e-012
1894
root  4.96817 40.9816 -4.83688 -104.407 -79.0768 122.248
RightUpLeg  -22.6337 -11.1275 -7.90149
RightLeg  4.91346 -7.3026 4.72884
RightFoot  -5.03804 -0.482482 8.12896
RightToes  -4.65663e-010 0 -3.6325e-017
Spine  -5.18717 -1.88602 19.9548
Spine1  2.97627 0.0638976 -6.30077
HEad  12.7792 20.4393 -17.8238
LeftShoulder1  6.78632 -9.6449 -44.9508
LeftArm  -5.35837 28.6153 -19.2461
LeftForeArm  24.0899 -26.6765 -4.44138
LeftHand  -0.244104 0.0205437 5.32207
RightShoulder  3.53824 6.41 29.7206
RightArm  -6.00812 -27.429 21.3422
RightForeArm  3.4692 46.038 11.3906
RightHand  -1.36293 2.34567 -20.477
LeftUpLeg  8.89208 2.38363 10.9918
LeftLeg  93.1553 -0.53304 3.02054
LeftFoot  43.903 6.84991 -13.6589
LeftToes  4.18335e-011 1.59304e-011 3.38507e-012
1895
root  4.65571 40.9548 -4.82949 -101.855 -79.2501 120.193
RightUpLeg  -22.8062 -11.2753 -8.03435
RightLeg  5.42386 -7.24241 4.68881
RightFoot  -5.86251 -0.440067 8.34741
RightToes  -4.65663e-010 0 -3.6325e-017
Spine  -6.39097 -1.49499 20.6544
Spine1  3.13413 -0.0766139 -5.62306
HEad  12.2767 20.1713 -18.3157
LeftShoulder1  6.70086 -9.58003 -44.5892
LeftArm  -3.27106 28.0222 -19.0574
LeftForeArm  23.7069 -25.0041 -4.09529
LeftHand  -0.244104 0.0205437 5.32207
RightShoulder  3.40168 6.17273 29.1726
RightArm  -6.94464 -28.8503 20.7178
RightForeArm  2.30554 44.4186 10.8287
RightHand  -1.38914 2.45413 -20.582
LeftUpLeg  12.4877 2.86025 12.2419
LeftLeg  79.7314 0.224587 3.00726
LeftFoot  42.3818 7.57788 -15.4564
LeftToes  4.18335e-011 1.59304e-011 3.38507e-012
1896
root  4.32323 40.9299 -4.84302 -100.725 -79.1818 119.448
RightUpLeg  -22.8847 -11.4604 -8.1674
RightLeg  5.89208 -6.92251 4.66127
RightFoot  -6.50418 -0.391922 8.2064
RightToes  -4.65663e-010 0 -3.6325e-017
Spine  -7.35694 -0.931208 21.5517
Spine1  3.1296 0.0490924 -5.6053
HEad  12.0741 19.8267 -18.4906
LeftShoulder1  6.59218 -9.51021 -44.0774
LeftArm  -1.18732 28.0177 -18.634
LeftForeArm  22.7132 -22.7658 -3.79218
LeftHand  -0.244104 0.0205437 5.32207
RightShoulder  3.34017 6.0628 28.9268
RightArm  -7.47043 -29.5713 20.1581
RightForeArm  1.64681 41.9898 9.97945
RightHand  -1.41118 2.54745 -20.663
LeftUpLeg  16.082 4.95026 13.5939
LeftLeg  62.8814 1.31106 3.40763
LeftFoot  38.6722 6.83206 -15.1185
LeftToes  4.18335e-011 1.59304e-011 3.38507e-012
1897
root  3.82285 41.0043 -4.94951 -99.7542 -78.6262 118.853
RightUpLeg  -22.2559 -11.672 -8.56813
RightLeg  5.29568 -6.47371 4.69114
RightFoot  -6.43816 -0.351181 7.19168
RightToes  -4.65663e-010 0 -3.6325e-017
Spine  -8.40907 -0.274387 21.4868
Spine1  2.48664 0.0118241 -5.63903
HEad  12.0339 19.3841 -18.3776
LeftShoulder1  6.46428 -9.37629 -43.6494
LeftArm  -0.542062 28.8964 -17.9683
LeftForeArm  22.2062 -20.5676 -3.92234
LeftHand  -0.244104 0.0205437 5.32207
RightShoulder  3.30013 5.98824 28.7754
RightArm  -7.62683 -29.388 19.8443
RightForeArm  1.04216 38.7844 8.94525
RightHand  -1.44724 2.81818 -20.5053
LeftUpLeg  19.5701 8.0372 14.2488
LeftLeg  43.446 0.820447 1.4536
LeftFoot  34.0447 5.51237 -13.6403
LeftToes  4.18335e-011 1.59304e-011 3.38507e-012
1898
root  3.41993 41.1418 -5.08321 -96.3223 -77.778 115.815
RightUpLeg  -21.5852 -12.0365 -9.33013
RightLeg  4.23514 -6.44066 4.64755
RightFoot  -5.72701 -0.321801 5.76028
RightToes  -4.65663e-010 0 -3.6325e-017
Spine  -8.97823 0.112447 20.3366
Spine1  1.4725 -0.197607 -5.3162
HEad  11.6136 18.5424 -18.1885
LeftShoulder1  6.37173 -9.24356 -43.4612
LeftArm  -1.1192 30.1382 -17.2069
LeftForeArm  22.0784 -18.6989 -4.24984
LeftHand  -0.244104 0.0205437 5.32207
RightShoulder  3.29446 5.96249 28.8107
RightArm  -7.89925 -28.5146 19.7035
RightForeArm  0.0795536 35.4299 7.98751
RightHand  -1.49477 3.20186 -20.2486
LeftUpLeg  21.548 11.2735 14.0165
LeftLeg  26.1443 -3.96114 -1.7771
LeftFoot  25.3541 4.35552 -13.6407
LeftToes  4.18335e-011 1.59304e-011 3.38507e-012
